#VRML V2.0 utf8
# Generic populated PLCC-44 socket; visualization only, dimensions approximate.
# Created for rosco_6502. Licensed under the project hardware licence.
Transform { translation -0.5 -2.5 0.4921259842519685 children [ Shape { appearance Appearance { material Material { diffuseColor 0.1 0.11 0.12 } } geometry Box { size 9.84251968503937 9.84251968503937 0.984251968503937 } } ] }
Transform { translation -5.224409448818897 -2.5 1.574803149606299 children [ Shape { appearance Appearance { material Material { diffuseColor 0.1 0.11 0.12 } } geometry Box { size 0.39370078740157477 9.84251968503937 2.1653543307086616 } } ] }
Transform { translation 4.224409448818898 -2.5 1.574803149606299 children [ Shape { appearance Appearance { material Material { diffuseColor 0.1 0.11 0.12 } } geometry Box { size 0.39370078740157477 9.84251968503937 2.1653543307086616 } } ] }
Transform { translation -0.5 -7.224409448818898 1.574803149606299 children [ Shape { appearance Appearance { material Material { diffuseColor 0.1 0.11 0.12 } } geometry Box { size 9.05511811023622 0.39370078740157477 2.1653543307086616 } } ] }
Transform { translation -0.5 2.2244094488188977 1.574803149606299 children [ Shape { appearance Appearance { material Material { diffuseColor 0.1 0.11 0.12 } } geometry Box { size 9.05511811023622 0.39370078740157477 2.1653543307086616 } } ] }
Transform { translation -0.5 -2.5 1.7716535433070866 children [ Shape { appearance Appearance { material Material { diffuseColor 0.16 0.17 0.18 } } geometry Box { size 6.496062992125984 6.496062992125984 1.3779527559055118 } } ] }
Transform { translation -3.0984251968503935 0.09842519685039369 2.4685039370078736 children [ Shape { appearance Appearance { material Material { diffuseColor 0.55 0.55 0.55 } } geometry Box { size 0.39370078740157477 0.39370078740157477 0.031496062992125984 } } ] }
Transform { translation -2.9999999999999996 -5.905511811023622 1.574803149606299 children [ Shape { appearance Appearance { material Material { diffuseColor 0.67 0.69 0.71 } } geometry Box { size 0.19685039370078738 0.47244094488188976 0.7874015748031495 } } ] }
Transform { translation -3.9055118110236218 -5.0 1.574803149606299 children [ Shape { appearance Appearance { material Material { diffuseColor 0.67 0.69 0.71 } } geometry Box { size 0.47244094488188976 0.19685039370078738 0.7874015748031495 } } ] }
Transform { translation -2.9999999999999996 0.9055118110236223 1.574803149606299 children [ Shape { appearance Appearance { material Material { diffuseColor 0.67 0.69 0.71 } } geometry Box { size 0.19685039370078738 0.47244094488188976 0.7874015748031495 } } ] }
Transform { translation 2.905511811023622 -5.0 1.574803149606299 children [ Shape { appearance Appearance { material Material { diffuseColor 0.67 0.69 0.71 } } geometry Box { size 0.47244094488188976 0.19685039370078738 0.7874015748031495 } } ] }
Transform { translation -2.5 -5.905511811023622 1.574803149606299 children [ Shape { appearance Appearance { material Material { diffuseColor 0.67 0.69 0.71 } } geometry Box { size 0.19685039370078738 0.47244094488188976 0.7874015748031495 } } ] }
Transform { translation -3.9055118110236218 -4.5 1.574803149606299 children [ Shape { appearance Appearance { material Material { diffuseColor 0.67 0.69 0.71 } } geometry Box { size 0.47244094488188976 0.19685039370078738 0.7874015748031495 } } ] }
Transform { translation -2.5 0.9055118110236223 1.574803149606299 children [ Shape { appearance Appearance { material Material { diffuseColor 0.67 0.69 0.71 } } geometry Box { size 0.19685039370078738 0.47244094488188976 0.7874015748031495 } } ] }
Transform { translation 2.905511811023622 -4.5 1.574803149606299 children [ Shape { appearance Appearance { material Material { diffuseColor 0.67 0.69 0.71 } } geometry Box { size 0.47244094488188976 0.19685039370078738 0.7874015748031495 } } ] }
Transform { translation -2.0 -5.905511811023622 1.574803149606299 children [ Shape { appearance Appearance { material Material { diffuseColor 0.67 0.69 0.71 } } geometry Box { size 0.19685039370078738 0.47244094488188976 0.7874015748031495 } } ] }
Transform { translation -3.9055118110236218 -4.0 1.574803149606299 children [ Shape { appearance Appearance { material Material { diffuseColor 0.67 0.69 0.71 } } geometry Box { size 0.47244094488188976 0.19685039370078738 0.7874015748031495 } } ] }
Transform { translation -2.0 0.9055118110236223 1.574803149606299 children [ Shape { appearance Appearance { material Material { diffuseColor 0.67 0.69 0.71 } } geometry Box { size 0.19685039370078738 0.47244094488188976 0.7874015748031495 } } ] }
Transform { translation 2.905511811023622 -4.0 1.574803149606299 children [ Shape { appearance Appearance { material Material { diffuseColor 0.67 0.69 0.71 } } geometry Box { size 0.47244094488188976 0.19685039370078738 0.7874015748031495 } } ] }
Transform { translation -1.5 -5.905511811023622 1.574803149606299 children [ Shape { appearance Appearance { material Material { diffuseColor 0.67 0.69 0.71 } } geometry Box { size 0.19685039370078738 0.47244094488188976 0.7874015748031495 } } ] }
Transform { translation -3.9055118110236218 -3.5 1.574803149606299 children [ Shape { appearance Appearance { material Material { diffuseColor 0.67 0.69 0.71 } } geometry Box { size 0.47244094488188976 0.19685039370078738 0.7874015748031495 } } ] }
Transform { translation -1.5 0.9055118110236223 1.574803149606299 children [ Shape { appearance Appearance { material Material { diffuseColor 0.67 0.69 0.71 } } geometry Box { size 0.19685039370078738 0.47244094488188976 0.7874015748031495 } } ] }
Transform { translation 2.905511811023622 -3.5 1.574803149606299 children [ Shape { appearance Appearance { material Material { diffuseColor 0.67 0.69 0.71 } } geometry Box { size 0.47244094488188976 0.19685039370078738 0.7874015748031495 } } ] }
Transform { translation -1.0 -5.905511811023622 1.574803149606299 children [ Shape { appearance Appearance { material Material { diffuseColor 0.67 0.69 0.71 } } geometry Box { size 0.19685039370078738 0.47244094488188976 0.7874015748031495 } } ] }
Transform { translation -3.9055118110236218 -2.9999999999999996 1.574803149606299 children [ Shape { appearance Appearance { material Material { diffuseColor 0.67 0.69 0.71 } } geometry Box { size 0.47244094488188976 0.19685039370078738 0.7874015748031495 } } ] }
Transform { translation -1.0 0.9055118110236223 1.574803149606299 children [ Shape { appearance Appearance { material Material { diffuseColor 0.67 0.69 0.71 } } geometry Box { size 0.19685039370078738 0.47244094488188976 0.7874015748031495 } } ] }
Transform { translation 2.905511811023622 -2.9999999999999996 1.574803149606299 children [ Shape { appearance Appearance { material Material { diffuseColor 0.67 0.69 0.71 } } geometry Box { size 0.47244094488188976 0.19685039370078738 0.7874015748031495 } } ] }
Transform { translation -0.5 -5.905511811023622 1.574803149606299 children [ Shape { appearance Appearance { material Material { diffuseColor 0.67 0.69 0.71 } } geometry Box { size 0.19685039370078738 0.47244094488188976 0.7874015748031495 } } ] }
Transform { translation -3.9055118110236218 -2.5 1.574803149606299 children [ Shape { appearance Appearance { material Material { diffuseColor 0.67 0.69 0.71 } } geometry Box { size 0.47244094488188976 0.19685039370078738 0.7874015748031495 } } ] }
Transform { translation -0.5 0.9055118110236223 1.574803149606299 children [ Shape { appearance Appearance { material Material { diffuseColor 0.67 0.69 0.71 } } geometry Box { size 0.19685039370078738 0.47244094488188976 0.7874015748031495 } } ] }
Transform { translation 2.905511811023622 -2.5 1.574803149606299 children [ Shape { appearance Appearance { material Material { diffuseColor 0.67 0.69 0.71 } } geometry Box { size 0.47244094488188976 0.19685039370078738 0.7874015748031495 } } ] }
Transform { translation 0.0 -5.905511811023622 1.574803149606299 children [ Shape { appearance Appearance { material Material { diffuseColor 0.67 0.69 0.71 } } geometry Box { size 0.19685039370078738 0.47244094488188976 0.7874015748031495 } } ] }
Transform { translation -3.9055118110236218 -2.0 1.574803149606299 children [ Shape { appearance Appearance { material Material { diffuseColor 0.67 0.69 0.71 } } geometry Box { size 0.47244094488188976 0.19685039370078738 0.7874015748031495 } } ] }
Transform { translation 0.0 0.9055118110236223 1.574803149606299 children [ Shape { appearance Appearance { material Material { diffuseColor 0.67 0.69 0.71 } } geometry Box { size 0.19685039370078738 0.47244094488188976 0.7874015748031495 } } ] }
Transform { translation 2.905511811023622 -2.0 1.574803149606299 children [ Shape { appearance Appearance { material Material { diffuseColor 0.67 0.69 0.71 } } geometry Box { size 0.47244094488188976 0.19685039370078738 0.7874015748031495 } } ] }
Transform { translation 0.5 -5.905511811023622 1.574803149606299 children [ Shape { appearance Appearance { material Material { diffuseColor 0.67 0.69 0.71 } } geometry Box { size 0.19685039370078738 0.47244094488188976 0.7874015748031495 } } ] }
Transform { translation -3.9055118110236218 -1.4999999999999998 1.574803149606299 children [ Shape { appearance Appearance { material Material { diffuseColor 0.67 0.69 0.71 } } geometry Box { size 0.47244094488188976 0.19685039370078738 0.7874015748031495 } } ] }
Transform { translation 0.5 0.9055118110236223 1.574803149606299 children [ Shape { appearance Appearance { material Material { diffuseColor 0.67 0.69 0.71 } } geometry Box { size 0.19685039370078738 0.47244094488188976 0.7874015748031495 } } ] }
Transform { translation 2.905511811023622 -1.4999999999999998 1.574803149606299 children [ Shape { appearance Appearance { material Material { diffuseColor 0.67 0.69 0.71 } } geometry Box { size 0.47244094488188976 0.19685039370078738 0.7874015748031495 } } ] }
Transform { translation 1.0 -5.905511811023622 1.574803149606299 children [ Shape { appearance Appearance { material Material { diffuseColor 0.67 0.69 0.71 } } geometry Box { size 0.19685039370078738 0.47244094488188976 0.7874015748031495 } } ] }
Transform { translation -3.9055118110236218 -0.9999999999999998 1.574803149606299 children [ Shape { appearance Appearance { material Material { diffuseColor 0.67 0.69 0.71 } } geometry Box { size 0.47244094488188976 0.19685039370078738 0.7874015748031495 } } ] }
Transform { translation 1.0 0.9055118110236223 1.574803149606299 children [ Shape { appearance Appearance { material Material { diffuseColor 0.67 0.69 0.71 } } geometry Box { size 0.19685039370078738 0.47244094488188976 0.7874015748031495 } } ] }
Transform { translation 2.905511811023622 -0.9999999999999998 1.574803149606299 children [ Shape { appearance Appearance { material Material { diffuseColor 0.67 0.69 0.71 } } geometry Box { size 0.47244094488188976 0.19685039370078738 0.7874015748031495 } } ] }
Transform { translation 1.5 -5.905511811023622 1.574803149606299 children [ Shape { appearance Appearance { material Material { diffuseColor 0.67 0.69 0.71 } } geometry Box { size 0.19685039370078738 0.47244094488188976 0.7874015748031495 } } ] }
Transform { translation -3.9055118110236218 -0.49999999999999983 1.574803149606299 children [ Shape { appearance Appearance { material Material { diffuseColor 0.67 0.69 0.71 } } geometry Box { size 0.47244094488188976 0.19685039370078738 0.7874015748031495 } } ] }
Transform { translation 1.5 0.9055118110236223 1.574803149606299 children [ Shape { appearance Appearance { material Material { diffuseColor 0.67 0.69 0.71 } } geometry Box { size 0.19685039370078738 0.47244094488188976 0.7874015748031495 } } ] }
Transform { translation 2.905511811023622 -0.49999999999999983 1.574803149606299 children [ Shape { appearance Appearance { material Material { diffuseColor 0.67 0.69 0.71 } } geometry Box { size 0.47244094488188976 0.19685039370078738 0.7874015748031495 } } ] }
Transform { translation 2.0 -5.905511811023622 1.574803149606299 children [ Shape { appearance Appearance { material Material { diffuseColor 0.67 0.69 0.71 } } geometry Box { size 0.19685039370078738 0.47244094488188976 0.7874015748031495 } } ] }
Transform { translation -3.9055118110236218 0.0 1.574803149606299 children [ Shape { appearance Appearance { material Material { diffuseColor 0.67 0.69 0.71 } } geometry Box { size 0.47244094488188976 0.19685039370078738 0.7874015748031495 } } ] }
Transform { translation 2.0 0.9055118110236223 1.574803149606299 children [ Shape { appearance Appearance { material Material { diffuseColor 0.67 0.69 0.71 } } geometry Box { size 0.19685039370078738 0.47244094488188976 0.7874015748031495 } } ] }
Transform { translation 2.905511811023622 0.0 1.574803149606299 children [ Shape { appearance Appearance { material Material { diffuseColor 0.67 0.69 0.71 } } geometry Box { size 0.47244094488188976 0.19685039370078738 0.7874015748031495 } } ] }
Transform { translation 0.0 -0.0 -0.19685039370078738 children [ Shape { appearance Appearance { material Material { diffuseColor 0.67 0.69 0.71 } } geometry Box { size 0.21653543307086615 0.21653543307086615 1.574803149606299 } } ] }
Transform { translation -1.0 1.0 -0.19685039370078738 children [ Shape { appearance Appearance { material Material { diffuseColor 0.67 0.69 0.71 } } geometry Box { size 0.21653543307086615 0.21653543307086615 1.574803149606299 } } ] }
Transform { translation -1.0 -0.0 -0.19685039370078738 children [ Shape { appearance Appearance { material Material { diffuseColor 0.67 0.69 0.71 } } geometry Box { size 0.21653543307086615 0.21653543307086615 1.574803149606299 } } ] }
Transform { translation -2.0 1.0 -0.19685039370078738 children [ Shape { appearance Appearance { material Material { diffuseColor 0.67 0.69 0.71 } } geometry Box { size 0.21653543307086615 0.21653543307086615 1.574803149606299 } } ] }
Transform { translation -2.0 -0.0 -0.19685039370078738 children [ Shape { appearance Appearance { material Material { diffuseColor 0.67 0.69 0.71 } } geometry Box { size 0.21653543307086615 0.21653543307086615 1.574803149606299 } } ] }
Transform { translation -3.0 1.0 -0.19685039370078738 children [ Shape { appearance Appearance { material Material { diffuseColor 0.67 0.69 0.71 } } geometry Box { size 0.21653543307086615 0.21653543307086615 1.574803149606299 } } ] }
Transform { translation -4.0 -0.0 -0.19685039370078738 children [ Shape { appearance Appearance { material Material { diffuseColor 0.67 0.69 0.71 } } geometry Box { size 0.21653543307086615 0.21653543307086615 1.574803149606299 } } ] }
Transform { translation -3.0 -0.0 -0.19685039370078738 children [ Shape { appearance Appearance { material Material { diffuseColor 0.67 0.69 0.71 } } geometry Box { size 0.21653543307086615 0.21653543307086615 1.574803149606299 } } ] }
Transform { translation -4.0 -1.0 -0.19685039370078738 children [ Shape { appearance Appearance { material Material { diffuseColor 0.67 0.69 0.71 } } geometry Box { size 0.21653543307086615 0.21653543307086615 1.574803149606299 } } ] }
Transform { translation -3.0 -1.0 -0.19685039370078738 children [ Shape { appearance Appearance { material Material { diffuseColor 0.67 0.69 0.71 } } geometry Box { size 0.21653543307086615 0.21653543307086615 1.574803149606299 } } ] }
Transform { translation -4.0 -2.0 -0.19685039370078738 children [ Shape { appearance Appearance { material Material { diffuseColor 0.67 0.69 0.71 } } geometry Box { size 0.21653543307086615 0.21653543307086615 1.574803149606299 } } ] }
Transform { translation -3.0 -2.0 -0.19685039370078738 children [ Shape { appearance Appearance { material Material { diffuseColor 0.67 0.69 0.71 } } geometry Box { size 0.21653543307086615 0.21653543307086615 1.574803149606299 } } ] }
Transform { translation -4.0 -3.0 -0.19685039370078738 children [ Shape { appearance Appearance { material Material { diffuseColor 0.67 0.69 0.71 } } geometry Box { size 0.21653543307086615 0.21653543307086615 1.574803149606299 } } ] }
Transform { translation -3.0 -3.0 -0.19685039370078738 children [ Shape { appearance Appearance { material Material { diffuseColor 0.67 0.69 0.71 } } geometry Box { size 0.21653543307086615 0.21653543307086615 1.574803149606299 } } ] }
Transform { translation -4.0 -4.0 -0.19685039370078738 children [ Shape { appearance Appearance { material Material { diffuseColor 0.67 0.69 0.71 } } geometry Box { size 0.21653543307086615 0.21653543307086615 1.574803149606299 } } ] }
Transform { translation -3.0 -4.0 -0.19685039370078738 children [ Shape { appearance Appearance { material Material { diffuseColor 0.67 0.69 0.71 } } geometry Box { size 0.21653543307086615 0.21653543307086615 1.574803149606299 } } ] }
Transform { translation -4.0 -5.0 -0.19685039370078738 children [ Shape { appearance Appearance { material Material { diffuseColor 0.67 0.69 0.71 } } geometry Box { size 0.21653543307086615 0.21653543307086615 1.574803149606299 } } ] }
Transform { translation -3.0 -6.0 -0.19685039370078738 children [ Shape { appearance Appearance { material Material { diffuseColor 0.67 0.69 0.71 } } geometry Box { size 0.21653543307086615 0.21653543307086615 1.574803149606299 } } ] }
Transform { translation -3.0 -5.0 -0.19685039370078738 children [ Shape { appearance Appearance { material Material { diffuseColor 0.67 0.69 0.71 } } geometry Box { size 0.21653543307086615 0.21653543307086615 1.574803149606299 } } ] }
Transform { translation -2.0 -6.0 -0.19685039370078738 children [ Shape { appearance Appearance { material Material { diffuseColor 0.67 0.69 0.71 } } geometry Box { size 0.21653543307086615 0.21653543307086615 1.574803149606299 } } ] }
Transform { translation -2.0 -5.0 -0.19685039370078738 children [ Shape { appearance Appearance { material Material { diffuseColor 0.67 0.69 0.71 } } geometry Box { size 0.21653543307086615 0.21653543307086615 1.574803149606299 } } ] }
Transform { translation -1.0 -6.0 -0.19685039370078738 children [ Shape { appearance Appearance { material Material { diffuseColor 0.67 0.69 0.71 } } geometry Box { size 0.21653543307086615 0.21653543307086615 1.574803149606299 } } ] }
Transform { translation -1.0 -5.0 -0.19685039370078738 children [ Shape { appearance Appearance { material Material { diffuseColor 0.67 0.69 0.71 } } geometry Box { size 0.21653543307086615 0.21653543307086615 1.574803149606299 } } ] }
Transform { translation 0.0 -6.0 -0.19685039370078738 children [ Shape { appearance Appearance { material Material { diffuseColor 0.67 0.69 0.71 } } geometry Box { size 0.21653543307086615 0.21653543307086615 1.574803149606299 } } ] }
Transform { translation 0.0 -5.0 -0.19685039370078738 children [ Shape { appearance Appearance { material Material { diffuseColor 0.67 0.69 0.71 } } geometry Box { size 0.21653543307086615 0.21653543307086615 1.574803149606299 } } ] }
Transform { translation 1.0 -6.0 -0.19685039370078738 children [ Shape { appearance Appearance { material Material { diffuseColor 0.67 0.69 0.71 } } geometry Box { size 0.21653543307086615 0.21653543307086615 1.574803149606299 } } ] }
Transform { translation 1.0 -5.0 -0.19685039370078738 children [ Shape { appearance Appearance { material Material { diffuseColor 0.67 0.69 0.71 } } geometry Box { size 0.21653543307086615 0.21653543307086615 1.574803149606299 } } ] }
Transform { translation 2.0 -6.0 -0.19685039370078738 children [ Shape { appearance Appearance { material Material { diffuseColor 0.67 0.69 0.71 } } geometry Box { size 0.21653543307086615 0.21653543307086615 1.574803149606299 } } ] }
Transform { translation 3.0 -5.0 -0.19685039370078738 children [ Shape { appearance Appearance { material Material { diffuseColor 0.67 0.69 0.71 } } geometry Box { size 0.21653543307086615 0.21653543307086615 1.574803149606299 } } ] }
Transform { translation 2.0 -5.0 -0.19685039370078738 children [ Shape { appearance Appearance { material Material { diffuseColor 0.67 0.69 0.71 } } geometry Box { size 0.21653543307086615 0.21653543307086615 1.574803149606299 } } ] }
Transform { translation 3.0 -4.0 -0.19685039370078738 children [ Shape { appearance Appearance { material Material { diffuseColor 0.67 0.69 0.71 } } geometry Box { size 0.21653543307086615 0.21653543307086615 1.574803149606299 } } ] }
Transform { translation 2.0 -4.0 -0.19685039370078738 children [ Shape { appearance Appearance { material Material { diffuseColor 0.67 0.69 0.71 } } geometry Box { size 0.21653543307086615 0.21653543307086615 1.574803149606299 } } ] }
Transform { translation 3.0 -3.0 -0.19685039370078738 children [ Shape { appearance Appearance { material Material { diffuseColor 0.67 0.69 0.71 } } geometry Box { size 0.21653543307086615 0.21653543307086615 1.574803149606299 } } ] }
Transform { translation 2.0 -3.0 -0.19685039370078738 children [ Shape { appearance Appearance { material Material { diffuseColor 0.67 0.69 0.71 } } geometry Box { size 0.21653543307086615 0.21653543307086615 1.574803149606299 } } ] }
Transform { translation 3.0 -2.0 -0.19685039370078738 children [ Shape { appearance Appearance { material Material { diffuseColor 0.67 0.69 0.71 } } geometry Box { size 0.21653543307086615 0.21653543307086615 1.574803149606299 } } ] }
Transform { translation 2.0 -2.0 -0.19685039370078738 children [ Shape { appearance Appearance { material Material { diffuseColor 0.67 0.69 0.71 } } geometry Box { size 0.21653543307086615 0.21653543307086615 1.574803149606299 } } ] }
Transform { translation 3.0 -1.0 -0.19685039370078738 children [ Shape { appearance Appearance { material Material { diffuseColor 0.67 0.69 0.71 } } geometry Box { size 0.21653543307086615 0.21653543307086615 1.574803149606299 } } ] }
Transform { translation 2.0 -1.0 -0.19685039370078738 children [ Shape { appearance Appearance { material Material { diffuseColor 0.67 0.69 0.71 } } geometry Box { size 0.21653543307086615 0.21653543307086615 1.574803149606299 } } ] }
Transform { translation 3.0 -0.0 -0.19685039370078738 children [ Shape { appearance Appearance { material Material { diffuseColor 0.67 0.69 0.71 } } geometry Box { size 0.21653543307086615 0.21653543307086615 1.574803149606299 } } ] }
Transform { translation 2.0 1.0 -0.19685039370078738 children [ Shape { appearance Appearance { material Material { diffuseColor 0.67 0.69 0.71 } } geometry Box { size 0.21653543307086615 0.21653543307086615 1.574803149606299 } } ] }
Transform { translation 2.0 -0.0 -0.19685039370078738 children [ Shape { appearance Appearance { material Material { diffuseColor 0.67 0.69 0.71 } } geometry Box { size 0.21653543307086615 0.21653543307086615 1.574803149606299 } } ] }
Transform { translation 1.0 1.0 -0.19685039370078738 children [ Shape { appearance Appearance { material Material { diffuseColor 0.67 0.69 0.71 } } geometry Box { size 0.21653543307086615 0.21653543307086615 1.574803149606299 } } ] }
Transform { translation 1.0 -0.0 -0.19685039370078738 children [ Shape { appearance Appearance { material Material { diffuseColor 0.67 0.69 0.71 } } geometry Box { size 0.21653543307086615 0.21653543307086615 1.574803149606299 } } ] }
Transform { translation 0.0 1.0 -0.19685039370078738 children [ Shape { appearance Appearance { material Material { diffuseColor 0.67 0.69 0.71 } } geometry Box { size 0.21653543307086615 0.21653543307086615 1.574803149606299 } } ] }
